<?xml version="1.0" encoding="UTF-8"?>
<svg version="1.1" xmlns="http://www.w3.org/2000/svg" width="893" height="222">
<path d="M0 0 C-0.02094727 1.01835937 -0.04189453 2.03671875 -0.06347656 3.0859375 C-0.13634684 6.89519976 -0.1819688 10.7044015 -0.21972656 14.51416016 C-0.23973571 16.1571695 -0.26695213 17.80010859 -0.30175781 19.44287109 C-0.35075305 21.81625788 -0.37307504 24.18869649 -0.390625 26.5625 C-0.41127014 27.28679199 -0.43191528 28.01108398 -0.45318604 28.75732422 C-0.45552598 34.17975603 0.86616123 38.52370298 4 43 C6.81509993 45.2773501 6.81509993 45.2773501 10 45 C11.6877081 43.23598598 11.6877081 43.23598598 13.1875 41 C13.71730469 40.2575 14.24710938 39.515 14.79296875 38.75 C15.39044922 37.88375 15.39044922 37.88375 16 37 C19.07032939 37.31329892 20.0122336 38.01284637 22.18359375 40.29296875 C22.92738281 41.24816406 23.67117187 42.20335937 24.4375 43.1875 C26.79527345 46.19250538 29.10819001 49.11825419 31.6875 51.9375 C39.85757939 62.75733487 42.27447757 74.9833439 45 88 C46.1886934 83.47716657 47.23571877 79.1713748 47.625 74.5 C47.73714844 73.21609375 47.73714844 73.21609375 47.8515625 71.90625 C47.92503906 70.96265625 47.92503906 70.96265625 48 70 C53.54067663 72.24942 55.26677823 76.94786835 58 82 C58.34708008 82.63437988 58.69416016 83.26875977 59.05175781 83.92236328 C60.17934977 86.00083502 61.28057708 88.09139363 62.375 90.1875 C62.73303711 90.85217285 63.09107422 91.5168457 63.45996094 92.20166016 C65.70547022 96.61271668 66.53359514 99.9432554 66 105 C63.22261451 109.36446291 60.05852952 110.47426768 55.25 111.75 C50.16190911 112.84295156 45.19604987 113.72039194 40 114 C38.73542969 114.08765625 37.47085938 114.1753125 36.16796875 114.265625 C24.1395747 114.87742852 24.1395747 114.87742852 19.5 111.9375 C13.31037834 106.2145017 9.9064819 97.20504234 6.48046875 89.6484375 C4.71145635 86.48381901 2.9620171 85.55314592 -0.4609375 84.45703125 C-5.60049833 83.5319103 -10.80180565 83.78604993 -16 84 C-16 85.65 -16 87.3 -16 89 C-14.91460937 89.49628906 -13.82921875 89.99257812 -12.7109375 90.50390625 C-3.86769343 94.65786316 2.24063337 97.78887252 7.4375 106.375 C8.33594742 110.56775464 8.40412258 113.90464248 7 118 C1.80837513 125.90988129 -7.17332055 133.92822166 -16.35546875 136.71484375 C-16.89816406 136.80894531 -17.44085938 136.90304688 -18 137 C-17.52663931 133.76536863 -16.94717307 130.84738886 -15.875 127.75 C-14.54060954 122.03118372 -15.14787324 116.55638028 -17 111 C-26.87170626 106.91842914 -40.93926571 110.32651808 -50.4140625 113.9140625 C-53.63815577 115.35611149 -55.67304819 116.62196196 -58 119.3125 C-59.82663976 124.22159436 -59.54389691 127.67572927 -57.5625 132.5 C-55.11683125 136.43975002 -51.57329102 138.87979326 -47.828125 141.51953125 C-47.22484375 142.00808594 -46.6215625 142.49664062 -46 143 C-46 143.66 -46 144.32 -46 145 C-49.66651247 145.08796382 -53.33274918 145.14071247 -57 145.1875 C-58.02996094 145.21263672 -59.05992188 145.23777344 -60.12109375 145.26367188 C-66.70161116 145.32654306 -73.44118231 145.32573665 -78.55444336 140.54736328 C-83.0310043 135.33669376 -83.36587185 131.80722053 -83.26171875 125.109375 C-82.88612819 120.64713494 -82.02304388 117.37244091 -79 114 C-76.42565279 112.33756889 -73.78861037 110.8956073 -71.0859375 109.453125 C-68.60775576 108.08961994 -68.60775576 108.08961994 -68.375 104.625 C-68.684375 103.325625 -68.684375 103.325625 -69 102 C-77.14022349 102.13344629 -82.83481845 104.63000906 -89 110 C-94.05893331 116.62534615 -95.45345015 124.97805852 -97 133 C-107.02201684 132.54445378 -116.04126843 126.85833468 -123.1484375 120.07421875 C-127.09616104 115.65176897 -129.06805571 112.10972698 -128.875 106.125 C-128 103 -128 103 -126 101 C-123.9135161 100.43070016 -121.8047767 99.94119922 -119.6875 99.5 C-115.5921356 98.64076733 -111.84106428 97.6719079 -108 96 C-107.13713373 80.01300555 -110.99733066 67.32172494 -121.1875 54.9375 C-124.9225834 50.80880916 -129.23597432 47.4590321 -133.64453125 44.078125 C-135.9320001 42.05999328 -136.76480214 40.70873621 -138 38 C-133.56255704 37.94121394 -129.12521627 37.90614187 -124.6875 37.875 C-123.44419922 37.85824219 -122.20089844 37.84148438 -120.91992188 37.82421875 C-114.17854196 37.78883093 -107.8799539 38.11873897 -101.28051758 39.53637695 C-98.02777785 40.19765013 -95.30746909 40.34452803 -92 40 C-90.05630262 38.64570159 -90.05630262 38.64570159 -89 37 C-89.99 37 -90.98 37 -92 37 C-91.684204 34.0525707 -91.09339475 33.08518422 -88.8671875 31.0546875 C-85.78116674 28.84317943 -82.80141947 27.36746051 -79.3125 25.875 C-78.17425781 25.37742187 -77.03601563 24.87984375 -75.86328125 24.3671875 C-65.47966642 20.45398991 -55.06561546 20.8362223 -44.14794922 21.11645508 C-42.10385105 21.1649421 -40.06009134 21.19463847 -38.015625 21.22265625 C-36.81196289 21.25109619 -35.60830078 21.27953613 -34.36816406 21.30883789 C-30.58182327 20.96165602 -28.23174897 19.96859308 -25 18 C-23.27851228 15.82092562 -23.27851228 15.82092562 -21.9375 13.3125 C-17.18466774 6.0716079 -8.93956617 -0.33866293 0 0 Z " fill="#000000" transform="translate(138,0)"/>
<path d="M0 0 C2.40825115 1.54669122 4.4923382 3.07139304 6.6875 4.875 C13.28103858 10.03153923 20.14981912 13.96031184 27.65307617 17.64990234 C35.19578045 21.40503446 35.19578045 21.40503446 38 25 C38.75 28.25 38.75 28.25 39 31 C39.66 30.67 40.32 30.34 41 30 C43.87004726 29.87646855 46.71485429 29.81157225 49.5859375 29.796875 C50.43926666 29.79117493 51.29259583 29.78547485 52.17178345 29.77960205 C53.979093 29.77014802 55.78641982 29.76361647 57.59375 29.75976562 C60.3570773 29.75006293 63.11965994 29.71904509 65.8828125 29.6875 C67.63801641 29.68096964 69.39322565 29.6757193 71.1484375 29.671875 C71.97459564 29.6595282 72.80075378 29.6471814 73.65194702 29.63446045 C76.89096347 29.64701853 79.38602793 29.74035851 82.38720703 31.00952148 C84.84404405 34.04170317 85.66549186 37.47378718 86.65625 41.17578125 C86.88526001 41.97856003 87.11427002 42.78133881 87.35021973 43.60844421 C88.08058065 46.17281463 88.79194469 48.7418886 89.5 51.3125 C90.20936607 53.87195644 90.92307766 56.42982948 91.64978027 58.98442078 C92.10105676 60.57199518 92.54245303 62.16242286 92.97229004 63.75593567 C95.0389079 71.04977165 98.02280094 76.11288039 104.73828125 79.9609375 C114.72807758 84.55037761 124.79278806 83.00212116 135 80 C138.4375 79.875 138.4375 79.875 141 80 C141 80.99 141 81.98 141 83 C127.08269419 90.56278033 112.09616087 97.07465195 96.05859375 97.23828125 C94.91330956 97.25038887 94.91330956 97.25038887 93.74488831 97.26274109 C92.13032262 97.27653376 90.51572837 97.28727733 88.90112305 97.29516602 C87.27115157 97.30663445 85.6412161 97.32700411 84.01147461 97.35668945 C69.63522353 97.61802275 57.14484873 96.0825148 46 86 C37.39968324 76.32670706 33.73458726 64.59715149 33.83203125 51.8125 C34.13077144 46.81033868 35.05416924 41.91494199 36 37 C31.44852077 45.04786859 31.44852077 45.04786859 30 54 C31.07572848 57.45485285 32.50721082 60.70754163 34 64 C36.61771758 69.99468659 37.61159899 75.46414854 38 82 C27.42751684 80.73130202 16.48693392 68.686367 10 61 C-0.60954267 45.53617784 -9.7404959 23.834713 -9.46875 4.8125 C-8.16178254 -0.24110753 -4.73735243 -0.72177316 0 0 Z M38 31 C39 33 39 33 39 33 Z " fill="#000000" transform="translate(18,125)"/>
<path d="M0 0 C9.4636794 7.4282539 15.47139319 18.80427471 17.01171875 30.6328125 C17.8006109 44.86321328 16.43990513 56.71710072 8.01171875 68.6328125 C7.35042969 69.58800781 7.35042969 69.58800781 6.67578125 70.5625 C-1.08693643 80.65852011 -14.63613837 86.68486698 -26.98828125 88.6328125 C-46.37606071 90.07379611 -65.17033007 88.25510805 -80.92578125 75.8203125 C-89.91386535 67.24077768 -95.43870215 55.69029874 -96.19140625 43.28515625 C-96.38956152 27.58135132 -92.93159339 14.26794323 -81.98828125 2.6328125 C-59.12877699 -16.83287457 -24.25618365 -16.67910467 0 0 Z M-66.67578125 19.3203125 C-72.27516751 26.04700882 -73.60320756 32.92952925 -73.328125 41.578125 C-72.39571983 49.95905427 -69.45814891 56.28524642 -63.20703125 61.9765625 C-53.77513867 69.01727105 -42.35685866 69.68696419 -30.98828125 68.6328125 C-23.30415255 66.93139291 -15.93481582 63.74192534 -11.265625 57.23046875 C-5.93923728 48.65536228 -5.1922447 41.74138628 -5.98828125 31.6328125 C-8.40420042 22.13186611 -12.99312729 16.94467792 -21.2578125 11.96484375 C-36.19783909 4.6765046 -55.22482294 7.29680628 -66.67578125 19.3203125 Z " fill="#000000" transform="translate(764.98828125,72.3671875)"/>
<path d="M0 0 C10.498125 -0.0825 20.99625 -0.165 31.8125 -0.25 C35.10581299 -0.28641602 38.39912598 -0.32283203 41.79223633 -0.36035156 C44.43049469 -0.3720445 47.06876032 -0.38223489 49.70703125 -0.390625 C50.37739914 -0.40107849 51.04776703 -0.41153198 51.7384491 -0.42230225 C64.12749585 -0.60553917 74.7575509 1.21967336 84 10 C90.09700622 16.75025688 91.506007 23.98268846 91.3046875 32.94140625 C90.50923419 40.9265337 87.20973917 46.81679716 81.359375 52.23828125 C76.64691489 55.75702216 70.9762202 59 65 59 C71.60052272 67.49985681 78.31625387 75.88594477 85.22705078 84.13647461 C88.40944195 87.96126262 91.32934306 91.80044118 94 96 C68.73729726 98.07376427 68.73729726 98.07376427 63.3671875 93.8203125 C61.29886761 91.24685838 59.59264016 88.71125862 58.03662109 85.80126953 C56.15842564 82.53765058 53.69251832 79.7188571 51.3125 76.8125 C48.78594064 73.67291959 46.3679877 70.62183107 44.3125 67.1484375 C42.69767342 64.26660655 42.69767342 64.26660655 39 61 C33.72 60.67 28.44 60.34 23 60 C23 71.88 23 83.76 23 96 C15.41 96 7.82 96 0 96 C0 64.32 0 32.64 0 0 Z M23 18 C23 25.92 23 33.84 23 42 C27.87521204 42.06906124 32.74871108 42.12873492 37.62402344 42.16479492 C39.28065763 42.17983465 40.93725231 42.20027177 42.59375 42.22631836 C44.9818703 42.26291515 47.36946188 42.27977439 49.7578125 42.29296875 C50.49242706 42.30845261 51.22704163 42.32393646 51.98391724 42.33988953 C58.00294641 42.34183715 61.96079511 40.87821503 66.375 36.8125 C68.53568964 33.07284486 68.69348508 30.22084128 68 26 C66.63434283 22.58585707 65.52739864 21.32976095 62.41162109 19.3815918 C58.24718573 17.69513554 54.97497535 17.61623668 50.5390625 17.70703125 C49.74849457 17.71127609 48.95792664 17.71552094 48.1434021 17.71989441 C45.6369106 17.73658699 43.13124539 17.77422017 40.625 17.8125 C38.91798042 17.82755908 37.21094815 17.84124534 35.50390625 17.85351562 C31.33536885 17.88389855 27.1686011 17.94263393 23 18 Z " fill="#000000" transform="translate(796,63)"/>
<path d="M0 0 C7.73064255 6.40982925 12.5868998 14.61648891 15.45703125 24.18359375 C15.45703125 26.16359375 15.45703125 28.14359375 15.45703125 30.18359375 C8.19703125 30.18359375 0.93703125 30.18359375 -6.54296875 30.18359375 C-7.40921875 28.47171875 -8.27546875 26.75984375 -9.16796875 24.99609375 C-13.7999781 16.59384422 -19.32998989 12.87682346 -28.54296875 10.18359375 C-38.8834082 8.09431023 -49.5935644 9.14481757 -58.64453125 14.78125 C-64.58672419 19.17064766 -67.74511463 25.14683141 -69.54296875 32.18359375 C-70.5664777 41.55438676 -69.22923211 49.10954074 -64.85546875 57.37109375 C-59.12410498 64.34167131 -53.31359748 67.22581283 -44.41015625 68.84375 C-35.31945748 69.64262959 -23.94856662 69.04924253 -16.54296875 63.18359375 C-11.50657766 58.48500938 -9.33308429 54.69386335 -6.54296875 48.18359375 C0.71703125 48.18359375 7.97703125 48.18359375 15.45703125 48.18359375 C14.17168449 59.75171461 10.29268642 69.31646232 1.45703125 77.18359375 C-14.0207084 89.11026972 -32.95780933 91.27759355 -51.92138672 88.88330078 C-60.33524973 87.36038576 -67.67182897 84.22730274 -74.54296875 79.18359375 C-75.249375 78.67054688 -75.95578125 78.1575 -76.68359375 77.62890625 C-86.26178159 69.98829076 -91.56478578 59.10474901 -93.54296875 47.18359375 C-94.47817174 31.77072917 -91.96671484 17.66144689 -81.91796875 5.49609375 C-61.54776643 -16.13530309 -23.46669378 -16.76192413 0 0 Z " fill="#000000" transform="translate(644.54296875,71.81640625)"/>
<path d="M0 0 C9.57 0 19.14 0 29 0 C34.38337078 10.68309318 39.61617483 21.41597612 44.6875 32.25 C45.38207428 33.73050965 46.07673738 35.21097764 46.77148438 36.69140625 C48.85130242 41.1259018 50.92618545 45.56269441 53 50 C53.31358459 50.6705542 53.62716919 51.3411084 53.95025635 52.03198242 C60.77503749 66.62667473 67.51530528 81.25049827 74 96 C65.75 96 57.5 96 49 96 C47.68 93.07125 46.36 90.1425 45 87.125 C44.58234375 86.20348145 44.1646875 85.28196289 43.734375 84.33251953 C43.40953125 83.60661621 43.0846875 82.88071289 42.75 82.1328125 C42.41484375 81.38918457 42.0796875 80.64555664 41.734375 79.87939453 C41 78 41 78 41 76 C23.51 76 6.02 76 -12 76 C-12.66 77.98 -13.32 79.96 -14 82 C-14.54419827 83.23048087 -15.11582819 84.44958867 -15.7265625 85.6484375 C-16.00580566 86.20192871 -16.28504883 86.75541992 -16.57275391 87.32568359 C-16.91999512 88.00195801 -17.26723633 88.67823242 -17.625 89.375 C-18.73875 91.56125 -19.8525 93.7475 -21 96 C-28.92 96 -36.84 96 -45 96 C-40.16306497 84.81064117 -35.11367247 73.75581209 -29.875 62.75 C-28.37220493 59.58404019 -26.87135121 56.41716299 -25.37109375 53.25 C-24.99970779 52.46631042 -24.62832184 51.68262085 -24.24568176 50.87518311 C-20.76462548 43.52077008 -17.34697719 36.13779419 -13.9375 28.75 C-9.46581079 19.07062596 -4.84419834 9.49842811 0 0 Z M14 18 C11.57167631 23.2110945 9.15080491 28.42555989 6.73681641 33.64331055 C5.91432047 35.41834966 5.08978531 37.19244532 4.26318359 38.96557617 C3.07634469 41.51236434 1.89684744 44.06243994 0.71875 46.61328125 C0.34689575 47.40712723 -0.0249585 48.20097321 -0.40808105 49.01887512 C-0.74843384 49.75941635 -1.08878662 50.49995758 -1.43945312 51.26293945 C-1.7414563 51.91357864 -2.04345947 52.56421783 -2.35461426 53.23457336 C-3.17167298 55.15632197 -3.17167298 55.15632197 -3 58 C8.55 58 20.1 58 32 58 C30.07469657 52.2240897 28.16793139 46.82178534 25.64453125 41.33984375 C25.33803146 40.66450089 25.03153168 39.98915802 24.71574402 39.29335022 C23.75219492 37.17279168 22.78248263 35.05512219 21.8125 32.9375 C21.15127953 31.48521409 20.49046882 30.03274154 19.83007812 28.58007812 C18.22476912 25.05121549 16.61393292 21.52492629 15 18 C14.67 18 14.34 18 14 18 Z " fill="#000000" transform="translate(298,63)"/>
<path d="M0 0 C3.29326427 2.30528499 5.60818368 4.55376475 8.25 7.5625 C16.96353395 15.28585964 28.15190225 15.18034622 39.14453125 14.7421875 C42 15 42 15 43.8515625 16.33984375 C45.7603853 19.09919643 45.55914467 20.70725919 45 24 C40.42310427 31.98522234 33.08976909 38.29360049 26 44 C27.11375 44.28875 28.2275 44.5775 29.375 44.875 C33 46 33 46 35 48 C35.75945661 54.68605729 34.41547131 57.94536246 30.3125 63.125 C29.87744141 63.70636719 29.44238281 64.28773438 28.99414062 64.88671875 C27.68968533 66.61439731 26.35382206 68.31080041 25 70 C24.54544434 70.57073242 24.09088867 71.14146484 23.62255859 71.72949219 C20.41099848 75.68526619 19.27348804 76.85621909 14.125 77.4375 C-1.70289522 77.18384783 -15.17890057 61.36988341 -25.44921875 50.79296875 C-37.69863184 37.88319232 -37.69863184 37.88319232 -38.37890625 31.375 C-38.00143674 28.01279734 -37.77552296 26.87235373 -35.5 24.5 C-34.94699219 23.91863281 -34.39398438 23.33726562 -33.82421875 22.73828125 C-31.3710314 20.40066161 -28.86134519 18.15312298 -26.27734375 15.9609375 C-22.66504526 12.85051925 -19.19939651 9.58008326 -15.7109375 6.33203125 C-10.59758543 1.9333696 -6.95745136 -1.11816183 0 0 Z " fill="#000000" transform="translate(157,127)"/>
<path d="M0 0 C32.67 0 65.34 0 99 0 C99 6.6 99 13.2 99 20 C86.46 20 73.92 20 61 20 C61 45.08 61 70.16 61 96 C53.41 96 45.82 96 38 96 C38 70.92 38 45.84 38 20 C25.46 20 12.92 20 0 20 C0 13.4 0 6.8 0 0 Z " fill="#000000" transform="translate(450,63)"/>
<path d="M0 0 C7.59 0 15.18 0 23 0 C23 25.08 23 50.16 23 76 C43.46 76 63.92 76 85 76 C85 82.6 85 89.2 85 96 C56.95 96 28.9 96 0 96 C0 64.32 0 32.64 0 0 Z " fill="#000000" transform="translate(381,63)"/>
<path d="M0 0 C5.53846154 3.07692308 5.53846154 3.07692308 7 6 C7.37677003 10.99220285 7.07396361 13.98020143 4 18 C0.03597587 19.98201207 -4.68944279 19.54737234 -9 19 C-12.54243946 16.59114117 -13.65637162 15.03088514 -15 11 C-15 7.3139451 -14.31141604 5.85074644 -12 3 C-8.06805815 -0.1673976 -4.97806095 -0.61134082 0 0 Z " fill="#000000" transform="translate(103,114)"/>
</svg>
