<?xml version="1.0" encoding="UTF-8" standalone="no"?>
<!DOCTYPE svg PUBLIC "-//W3C//DTD SVG 1.1//EN" "http://www.w3.org/Graphics/SVG/1.1/DTD/svg11.dtd">
<svg xmlns="http://www.w3.org/2000/svg" version="1.1" viewBox="0.00 0.00 1796.00 502.00">
<circle fill="#ffffff" cx="1346.96" cy="97.18" r="21.83"/>
<path fill="#ffffff" d="
  M 813.33 151.92
  Q 819.70 154.80 826.01 156.89
  C 838.77 161.12 851.06 164.62 863.72 170.12
  Q 876.41 175.63 886.38 186.20
  Q 892.01 192.18 895.13 202.69
  C 898.34 213.52 898.23 225.83 894.97 236.47
  C 888.21 258.50 867.63 271.71 845.14 275.44
  Q 829.83 277.98 813.57 276.00
  C 785.33 272.56 762.17 256.65 752.07 229.61
  Q 751.95 229.27 752.26 229.09
  L 784.00 210.52
  Q 784.44 210.27 784.62 210.73
  Q 794.51 235.76 820.10 239.12
  Q 832.88 240.80 843.72 237.90
  C 853.95 235.16 861.06 226.81 859.17 215.92
  C 857.88 208.48 852.58 204.30 846.10 201.23
  Q 838.26 197.52 829.45 194.85
  C 812.34 189.64 796.16 185.25 781.37 175.55
  C 765.33 165.01 759.23 149.68 760.01 130.89
  C 760.63 116.11 766.29 102.60 777.66 92.89
  Q 796.61 76.71 822.50 76.68
  Q 865.82 76.64 888.53 113.33
  Q 890.23 116.08 891.70 119.36
  Q 891.93 119.86 891.45 120.14
  L 860.49 138.01
  Q 860.04 138.28 859.80 137.80
  C 851.60 120.99 838.48 112.13 818.80 113.72
  C 807.34 114.64 797.26 121.68 797.99 134.07
  C 798.55 143.40 805.55 148.40 813.33 151.92
  Z"
/>
<path fill="#ffffff" d="
  M 150.88 117.10
  L 150.87 157.42
  A 0.33 0.33 0.0 0 0 151.20 157.75
  L 223.42 157.75
  A 0.33 0.33 0.0 0 1 223.75 158.08
  L 223.75 193.21
  A 0.33 0.33 0.0 0 1 223.42 193.54
  L 151.20 193.52
  A 0.33 0.33 0.0 0 0 150.87 193.85
  L 150.87 236.41
  A 0.33 0.33 0.0 0 0 151.20 236.74
  L 231.67 236.74
  A 0.33 0.33 0.0 0 1 232.00 237.07
  L 232.00 272.68
  A 0.33 0.33 0.0 0 1 231.67 273.01
  L 113.20 273.01
  A 0.33 0.33 0.0 0 1 112.87 272.68
  L 112.87 80.82
  A 0.33 0.33 0.0 0 1 113.20 80.49
  L 230.28 80.51
  A 0.33 0.33 0.0 0 1 230.61 80.84
  L 230.63 116.44
  A 0.33 0.33 0.0 0 1 230.30 116.77
  L 151.21 116.77
  A 0.33 0.33 0.0 0 0 150.88 117.10
  Z"
/>
<path fill="#ffffff" d="
  M 358.73 150.94
  L 358.74 136.01
  Q 358.74 135.50 359.24 135.50
  L 394.00 135.50
  Q 394.25 135.50 394.25 135.75
  L 394.25 272.51
  Q 394.25 273.01 393.74 273.01
  L 359.25 273.01
  Q 358.74 273.01 358.74 272.50
  L 358.74 257.73
  Q 358.74 256.79 358.14 257.52
  Q 344.87 273.61 323.20 276.27
  C 303.18 278.72 284.99 273.22 270.60 259.67
  Q 252.54 242.69 248.39 219.38
  C 243.31 190.87 252.20 163.20 275.09 145.01
  Q 295.32 128.94 323.02 132.23
  Q 344.97 134.83 358.23 151.12
  Q 358.73 151.74 358.73 150.94
  Z
  M 283.09 211.36
  C 286.22 232.20 303.78 244.65 324.53 242.83
  C 347.42 240.81 360.74 221.52 358.43 199.23
  C 356.68 182.28 344.63 168.70 327.61 166.05
  C 299.17 161.63 278.89 183.33 283.09 211.36
  Z"
/>
<path fill="#ffffff" d="
  M 505.76 196.92
  C 515.36 201.00 523.82 209.83 526.94 219.58
  Q 529.95 228.97 528.36 240.31
  C 525.02 264.18 501.76 275.11 480.31 276.59
  C 453.34 278.46 428.38 270.42 416.02 244.40
  A 0.36 0.35 62.7 0 1 416.16 243.94
  L 446.13 227.08
  Q 446.67 226.78 446.89 227.36
  C 452.16 241.89 464.62 245.77 478.78 244.42
  Q 483.95 243.93 487.49 241.86
  C 494.32 237.85 494.43 228.84 487.07 224.93
  Q 479.90 221.11 472.16 219.05
  Q 458.86 215.52 447.31 211.10
  C 434.24 206.11 423.63 195.21 422.01 180.88
  Q 420.59 168.28 425.04 158.01
  C 431.28 143.60 446.83 134.93 462.04 132.59
  C 487.92 128.59 512.29 137.57 525.95 160.35
  A 0.49 0.48 60.2 0 1 525.77 161.03
  L 496.35 177.07
  Q 495.89 177.33 495.66 176.85
  Q 488.84 162.91 472.96 163.31
  C 467.90 163.44 462.01 165.22 459.33 169.53
  C 456.30 174.43 458.42 179.70 463.36 182.39
  Q 469.76 185.89 477.19 187.90
  C 486.81 190.50 496.67 193.06 505.76 196.92
  Z"
/>
<path fill="#ffffff" d="
  M 954.34 219.16
  Q 959.43 237.05 976.26 242.29
  Q 987.55 245.80 1000.16 244.16
  Q 1014.83 242.24 1023.38 231.37
  Q 1023.76 230.89 1024.29 231.20
  L 1052.04 247.21
  A 0.37 0.37 0.0 0 1 1052.16 247.75
  Q 1034.04 273.53 1001.30 276.43
  C 982.62 278.09 962.35 274.96 946.84 263.87
  C 924.68 248.03 915.23 223.94 917.39 197.12
  Q 919.83 166.66 942.98 147.34
  Q 954.30 137.89 968.92 134.17
  C 990.57 128.66 1015.29 131.62 1033.02 146.41
  C 1054.58 164.41 1062.58 190.83 1057.99 218.26
  Q 1057.89 218.88 1057.26 218.88
  L 954.55 218.87
  Q 954.26 218.87 954.34 219.16
  Z
  M 989.60 163.58
  C 971.71 163.56 958.44 172.69 953.80 190.69
  Q 953.63 191.33 954.30 191.33
  L 1023.06 191.33
  Q 1023.75 191.33 1023.60 190.65
  C 1019.72 173.57 1006.76 163.59 989.60 163.58
  Z"
/>
<path fill="#ffffff" d="
  M 1571.33 219.17
  C 1577.48 240.55 1596.87 246.63 1616.95 244.18
  Q 1631.54 242.41 1640.43 231.35
  Q 1640.79 230.91 1641.29 231.19
  L 1668.79 247.06
  Q 1669.40 247.42 1668.99 247.99
  C 1655.95 266.36 1637.30 275.50 1615.16 276.67
  C 1594.24 277.77 1573.76 273.16 1558.18 259.47
  Q 1536.28 240.21 1534.29 210.28
  C 1532.92 189.61 1538.29 170.34 1552.06 154.94
  Q 1570.99 133.78 1600.63 131.86
  C 1614.34 130.96 1628.15 133.08 1640.04 139.66
  C 1668.30 155.29 1680.60 187.49 1674.88 218.65
  A 0.29 0.28 4.8 0 1 1674.60 218.88
  L 1571.55 218.87
  Q 1571.24 218.87 1571.33 219.17
  Z
  M 1619.28 165.70
  C 1611.11 162.78 1600.96 162.89 1592.85 165.66
  Q 1575.80 171.48 1570.79 190.69
  Q 1570.63 191.33 1571.29 191.33
  L 1640.05 191.33
  Q 1640.75 191.33 1640.60 190.65
  Q 1636.31 171.79 1619.28 165.70
  Z"
/>
<path fill="#ffffff" d="
  M 1493.44 184.48
  C 1486.47 170.74 1471.33 164.94 1456.18 167.05
  C 1439.47 169.38 1427.51 182.72 1425.82 199.35
  C 1424.87 208.71 1426.55 218.48 1431.97 226.13
  Q 1441.66 239.84 1458.22 241.42
  C 1472.75 242.81 1486.93 237.20 1493.78 223.98
  Q 1494.04 223.48 1494.52 223.76
  L 1524.28 240.76
  Q 1524.84 241.08 1524.52 241.64
  C 1511.66 264.29 1487.41 277.17 1461.52 276.82
  Q 1429.88 276.39 1409.21 254.26
  Q 1393.29 237.20 1390.66 214.09
  C 1388.21 192.59 1393.44 171.89 1407.95 155.63
  Q 1425.76 135.70 1451.52 132.41
  C 1481.02 128.66 1509.62 140.33 1524.01 166.59
  Q 1524.30 167.13 1523.77 167.45
  L 1494.26 184.72
  Q 1493.72 185.04 1493.44 184.48
  Z"
/>
<path fill="#ffffff" d="
  M 1120.13 157.55
  C 1127.01 140.58 1143.33 132.39 1160.96 132.25
  Q 1161.51 132.24 1161.51 132.79
  L 1161.52 171.25
  Q 1161.52 171.88 1160.88 171.81
  Q 1148.12 170.38 1136.92 175.87
  C 1125.19 181.63 1119.81 192.21 1119.79 205.00
  Q 1119.74 238.91 1119.75 272.22
  Q 1119.75 272.51 1119.46 272.51
  L 1084.75 272.51
  Q 1084.23 272.51 1084.23 272.00
  L 1084.23 135.26
  Q 1084.23 135.00 1084.49 135.00
  L 1119.25 135.00
  Q 1119.75 135.00 1119.75 135.50
  L 1119.74 157.48
  Q 1119.74 158.51 1120.13 157.55
  Z"
/>
<path fill="#ffffff" d="
  M 605.71 226.74
  L 635.68 136.05
  Q 635.86 135.50 636.45 135.50
  L 673.22 135.50
  Q 673.83 135.50 673.62 136.08
  Q 648.55 205.08 623.12 274.80
  C 614.52 298.36 599.72 319.84 573.84 326.08
  Q 562.96 328.71 551.61 327.98
  Q 551.12 327.94 551.12 327.46
  L 551.12 295.54
  Q 551.12 294.96 551.70 294.97
  C 570.52 295.31 580.98 286.14 586.98 269.09
  Q 587.17 268.55 586.94 268.02
  L 531.00 135.96
  A 0.33 0.33 0.0 0 1 531.31 135.50
  L 569.04 135.50
  Q 569.61 135.50 569.82 136.04
  L 604.91 226.76
  Q 605.34 227.86 605.71 226.74
  Z"
/>
<path fill="#ffffff" d="
  M 1239.49 230.78
  L 1272.60 135.73
  A 0.35 0.35 0.0 0 1 1272.93 135.50
  L 1311.25 135.50
  A 0.35 0.35 0.0 0 1 1311.58 135.97
  L 1259.60 272.78
  A 0.35 0.35 0.0 0 1 1259.27 273.01
  L 1219.31 273.01
  A 0.35 0.35 0.0 0 1 1218.98 272.78
  L 1166.99 135.97
  A 0.35 0.35 0.0 0 1 1167.32 135.50
  L 1205.64 135.50
  A 0.35 0.35 0.0 0 1 1205.97 135.74
  L 1238.83 230.78
  A 0.35 0.35 0.0 0 0 1239.49 230.78
  Z"
/>
<rect fill="#ffffff" x="1329.23" y="135.50" width="35.52" height="137.52" rx="0.28"/>
<path fill="#ffffff" d="
  M 928.52 358.25
  A 23.65 23.65 0.0 0 1 904.87 381.90
  A 23.65 23.65 0.0 0 1 881.22 358.25
  A 23.65 23.65 0.0 0 1 904.87 334.60
  A 23.65 23.65 0.0 0 1 928.52 358.25
  Z
  M 921.22 358.25
  A 16.35 16.35 0.0 0 0 904.87 341.90
  A 16.35 16.35 0.0 0 0 888.52 358.25
  A 16.35 16.35 0.0 0 0 904.87 374.60
  A 16.35 16.35 0.0 0 0 921.22 358.25
  Z"
/>
<path fill="#ffffff" d="
  M 1127.71 358.49
  C 1127.88 368.87 1135.85 375.67 1146.23 374.44
  Q 1153.19 373.60 1157.01 367.58
  Q 1157.20 367.28 1157.51 367.45
  L 1163.24 370.75
  A 0.39 0.38 -60.2 0 1 1163.38 371.28
  C 1152.88 388.45 1124.93 383.82 1120.84 363.58
  C 1117.17 345.46 1132.33 331.05 1150.10 335.50
  Q 1158.71 337.66 1163.46 345.28
  A 0.26 0.26 0.0 0 1 1163.37 345.64
  L 1157.53 349.01
  Q 1157.22 349.19 1157.02 348.89
  Q 1151.73 340.87 1141.32 342.10
  C 1132.97 343.09 1127.57 350.20 1127.71 358.49
  Z"
/>
<path fill="#ffffff" d="
  M 1338.52 358.25
  A 23.65 23.65 0.0 0 1 1314.87 381.90
  A 23.65 23.65 0.0 0 1 1291.22 358.25
  A 23.65 23.65 0.0 0 1 1314.87 334.60
  A 23.65 23.65 0.0 0 1 1338.52 358.25
  Z
  M 1331.22 358.25
  A 16.35 16.35 0.0 0 0 1314.87 341.90
  A 16.35 16.35 0.0 0 0 1298.52 358.25
  A 16.35 16.35 0.0 0 0 1314.87 374.60
  A 16.35 16.35 0.0 0 0 1331.22 358.25
  Z"
/>
<path fill="#ffffff" d="
  M 1536.05 334.76
  C 1544.76 334.20 1552.85 337.80 1557.42 345.19
  Q 1557.61 345.50 1557.29 345.68
  L 1551.47 349.05
  Q 1551.18 349.21 1551.01 348.93
  C 1546.60 341.72 1537.48 340.25 1530.22 343.63
  C 1524.81 346.14 1521.66 352.23 1521.70 358.27
  C 1521.77 367.95 1528.73 374.95 1538.50 374.59
  Q 1546.78 374.28 1551.02 367.58
  Q 1551.21 367.28 1551.52 367.46
  L 1557.40 370.84
  A 0.25 0.25 0.0 0 1 1557.49 371.19
  Q 1550.51 381.98 1537.22 381.78
  C 1526.91 381.63 1517.78 374.81 1515.17 364.96
  C 1511.31 350.38 1520.42 335.78 1536.05 334.76
  Z"
/>
<path fill="#ffffff" d="
  M 766.00 366.04
  L 766.00 380.75
  Q 766.00 381.00 765.75 381.00
  L 758.76 380.99
  Q 758.53 380.99 758.53 380.76
  L 758.53 336.04
  Q 758.53 335.42 759.16 335.44
  Q 765.23 335.72 771.50 335.47
  Q 778.31 335.20 781.86 336.88
  C 788.90 340.23 792.09 348.08 789.57 355.51
  C 787.38 361.95 781.35 365.52 774.47 365.48
  Q 770.48 365.45 766.58 365.45
  Q 766.00 365.45 766.00 366.04
  Z
  M 765.96 342.68
  L 766.02 358.32
  A 0.23 0.23 0.0 0 0 766.25 358.55
  L 775.31 358.52
  A 7.98 7.73 89.8 0 0 783.01 350.51
  L 783.01 350.37
  A 7.98 7.73 89.8 0 0 775.25 342.42
  L 766.19 342.45
  A 0.23 0.23 0.0 0 0 765.96 342.68
  Z"
/>
<path fill="#ffffff" d="
  M 804.00 343.05
  L 804.00 354.23
  A 0.31 0.31 0.0 0 0 804.31 354.54
  L 821.94 354.53
  A 0.31 0.31 0.0 0 1 822.25 354.84
  L 822.25 361.15
  A 0.31 0.31 0.0 0 1 821.94 361.46
  L 804.31 361.46
  A 0.31 0.31 0.0 0 0 804.00 361.77
  L 804.00 373.44
  A 0.31 0.31 0.0 0 0 804.31 373.75
  L 823.94 373.75
  A 0.31 0.31 0.0 0 1 824.25 374.06
  L 824.25 380.69
  A 0.31 0.31 0.0 0 1 823.94 381.00
  L 796.84 381.00
  A 0.31 0.31 0.0 0 1 796.53 380.69
  L 796.53 335.84
  A 0.31 0.31 0.0 0 1 796.84 335.53
  L 823.44 335.54
  A 0.31 0.31 0.0 0 1 823.75 335.85
  L 823.72 342.42
  A 0.31 0.31 0.0 0 1 823.41 342.73
  L 804.31 342.74
  A 0.31 0.31 0.0 0 0 804.00 343.05
  Z"
/>
<path fill="#ffffff" d="
  M 865.94 349.60
  L 852.61 371.67
  A 0.34 0.34 0.0 0 1 852.03 371.67
  L 838.61 349.37
  A 0.34 0.34 0.0 0 0 837.98 349.55
  L 838.01 380.66
  A 0.34 0.34 0.0 0 1 837.67 381.00
  L 830.87 380.99
  A 0.34 0.34 0.0 0 1 830.53 380.65
  L 830.53 335.86
  A 0.34 0.34 0.0 0 1 830.87 335.52
  L 838.43 335.54
  A 0.34 0.34 0.0 0 1 838.72 335.70
  L 852.03 357.83
  A 0.34 0.34 0.0 0 0 852.61 357.83
  L 866.02 335.70
  A 0.34 0.34 0.0 0 1 866.31 335.54
  L 873.66 335.53
  A 0.34 0.34 0.0 0 1 874.00 335.87
  L 874.00 380.66
  A 0.34 0.34 0.0 0 1 873.66 381.00
  L 866.86 380.99
  A 0.34 0.34 0.0 0 1 866.52 380.65
  L 866.57 349.77
  A 0.34 0.34 0.0 0 0 865.94 349.60
  Z"
/>
<path fill="#ffffff" d="
  M 943.00 361.55
  L 943.00 380.70
  A 0.30 0.30 0.0 0 1 942.70 381.00
  L 935.83 380.99
  A 0.30 0.30 0.0 0 1 935.53 380.69
  L 935.53 335.83
  A 0.30 0.30 0.0 0 1 935.83 335.53
  L 942.70 335.54
  A 0.30 0.30 0.0 0 1 943.00 335.84
  L 943.00 353.97
  A 0.30 0.30 0.0 0 0 943.30 354.27
  L 962.24 354.26
  A 0.30 0.30 0.0 0 0 962.54 353.96
  L 962.53 335.83
  A 0.30 0.30 0.0 0 1 962.83 335.53
  L 969.70 335.54
  A 0.30 0.30 0.0 0 1 970.00 335.84
  L 970.00 380.70
  A 0.30 0.30 0.0 0 1 969.70 381.00
  L 962.83 380.99
  A 0.30 0.30 0.0 0 1 962.53 380.69
  L 962.54 361.55
  A 0.30 0.30 0.0 0 0 962.24 361.25
  L 943.30 361.25
  A 0.30 0.30 0.0 0 0 943.00 361.55
  Z"
/>
<path fill="#ffffff" d="
  M 995.25 343.05
  L 995.25 380.68
  A 0.32 0.32 0.0 0 1 994.93 381.00
  L 988.07 381.00
  A 0.32 0.32 0.0 0 1 987.75 380.68
  L 987.75 343.05
  A 0.32 0.32 0.0 0 0 987.43 342.73
  L 975.33 342.74
  A 0.32 0.32 0.0 0 1 975.01 342.42
  L 975.00 335.86
  A 0.32 0.32 0.0 0 1 975.32 335.54
  L 1007.93 335.53
  A 0.32 0.32 0.0 0 1 1008.25 335.85
  L 1008.25 342.42
  A 0.32 0.32 0.0 0 1 1007.93 342.74
  L 995.57 342.73
  A 0.32 0.32 0.0 0 0 995.25 343.05
  Z"
/>
<path fill="#ffffff" d="
  M 1057.88 357.72
  C 1067.03 363.48 1064.94 376.85 1054.80 380.22
  Q 1052.17 381.09 1048.75 381.05
  Q 1039.73 380.93 1030.83 381.02
  A 0.30 0.30 0.0 0 1 1030.53 380.72
  L 1030.53 336.04
  Q 1030.53 335.46 1031.12 335.47
  Q 1038.70 335.68 1046.55 335.45
  Q 1051.99 335.29 1055.23 337.11
  C 1062.69 341.29 1064.63 351.32 1057.83 356.97
  Q 1057.34 357.38 1057.88 357.72
  Z
  M 1037.99 342.72
  L 1037.99 354.28
  A 0.28 0.28 0.0 0 0 1038.27 354.56
  L 1048.49 354.56
  A 6.04 5.99 0.0 0 0 1054.53 348.57
  L 1054.53 348.43
  A 6.04 5.99 -0.0 0 0 1048.49 342.44
  L 1038.27 342.44
  A 0.28 0.28 0.0 0 0 1037.99 342.72
  Z
  M 1038.00 361.52
  L 1038.00 373.72
  A 0.30 0.30 0.0 0 0 1038.30 374.02
  L 1049.89 374.02
  A 6.39 6.25 0.0 0 0 1056.28 367.77
  L 1056.28 367.47
  A 6.39 6.25 -0.0 0 0 1049.89 361.22
  L 1038.30 361.22
  A 0.30 0.30 0.0 0 0 1038.00 361.52
  Z"
/>
<path fill="#ffffff" d="
  M 1077.75 351.05
  C 1085.24 350.86 1092.75 350.15 1097.97 356.44
  C 1102.26 361.62 1102.60 369.26 1098.68 374.68
  C 1095.04 379.74 1090.28 381.19 1084.15 381.06
  Q 1076.59 380.91 1069.84 381.02
  A 0.30 0.30 0.0 0 1 1069.53 380.72
  L 1069.53 335.75
  A 0.22 0.22 0.0 0 1 1069.75 335.53
  L 1076.77 335.53
  A 0.24 0.23 -90.0 0 1 1077.00 335.77
  L 1077.00 350.31
  Q 1077.00 351.07 1077.75 351.05
  Z
  M 1076.99 358.28
  L 1077.01 373.80
  A 0.25 0.25 0.0 0 0 1077.26 374.05
  L 1086.31 374.04
  A 7.88 7.70 89.9 0 0 1094.00 366.15
  L 1094.00 365.89
  A 7.88 7.70 89.9 0 0 1086.29 358.02
  L 1077.24 358.03
  A 0.25 0.25 0.0 0 0 1076.99 358.28
  Z"
/>
<rect fill="#ffffff" x="1105.75" y="335.54" width="7.50" height="45.46" rx="0.31"/>
<path fill="#ffffff" d="
  M 1192.00 373.44
  L 1192.00 335.84
  A 0.31 0.31 0.0 0 1 1192.31 335.53
  L 1199.14 335.56
  A 0.31 0.31 0.0 0 1 1199.45 335.87
  L 1199.47 373.44
  A 0.31 0.31 0.0 0 0 1199.78 373.75
  L 1214.22 373.75
  A 0.31 0.31 0.0 0 0 1214.53 373.44
  L 1214.53 335.83
  A 0.31 0.31 0.0 0 1 1214.84 335.52
  L 1221.69 335.53
  A 0.31 0.31 0.0 0 1 1222.00 335.84
  L 1222.00 380.69
  A 0.31 0.31 0.0 0 1 1221.69 381.00
  L 1169.84 381.00
  A 0.31 0.31 0.0 0 1 1169.53 380.69
  L 1169.53 335.83
  A 0.31 0.31 0.0 0 1 1169.84 335.52
  L 1176.69 335.54
  A 0.31 0.31 0.0 0 1 1177.00 335.85
  L 1177.00 373.44
  A 0.31 0.31 0.0 0 0 1177.31 373.75
  L 1191.69 373.75
  A 0.31 0.31 0.0 0 0 1192.00 373.44
  Z"
/>
<path fill="#ffffff" d="
  M 1239.00 343.05
  L 1239.00 354.23
  A 0.31 0.31 0.0 0 0 1239.31 354.54
  L 1256.94 354.53
  A 0.31 0.31 0.0 0 1 1257.25 354.84
  L 1257.25 361.15
  A 0.31 0.31 0.0 0 1 1256.94 361.46
  L 1239.31 361.46
  A 0.31 0.31 0.0 0 0 1239.00 361.77
  L 1239.00 373.44
  A 0.31 0.31 0.0 0 0 1239.31 373.75
  L 1258.94 373.75
  A 0.31 0.31 0.0 0 1 1259.25 374.06
  L 1259.25 380.69
  A 0.31 0.31 0.0 0 1 1258.94 381.00
  L 1231.84 381.00
  A 0.31 0.31 0.0 0 1 1231.53 380.69
  L 1231.53 335.83
  A 0.31 0.31 0.0 0 1 1231.84 335.52
  L 1258.43 335.57
  A 0.31 0.31 0.0 0 1 1258.74 335.88
  L 1258.72 342.42
  A 0.31 0.31 0.0 0 1 1258.41 342.73
  L 1239.31 342.74
  A 0.31 0.31 0.0 0 0 1239.00 343.05
  Z"
/>
<path fill="#ffffff" d="
  M 1273.00 343.04
  L 1273.00 380.69
  A 0.31 0.31 0.0 0 1 1272.69 381.00
  L 1265.84 380.99
  A 0.31 0.31 0.0 0 1 1265.53 380.68
  L 1265.55 335.83
  A 0.31 0.31 0.0 0 1 1265.86 335.52
  L 1290.94 335.54
  A 0.31 0.31 0.0 0 1 1291.25 335.85
  L 1291.25 342.43
  A 0.31 0.31 0.0 0 1 1290.94 342.74
  L 1273.31 342.73
  A 0.31 0.31 0.0 0 0 1273.00 343.04
  Z"
/>
<path fill="#ffffff" d="
  M 1368.98 360.14
  L 1369.01 380.67
  A 0.33 0.33 0.0 0 1 1368.68 381.00
  L 1361.86 380.99
  A 0.33 0.33 0.0 0 1 1361.53 380.66
  L 1361.53 335.85
  A 0.33 0.33 0.0 0 1 1361.86 335.52
  L 1368.68 335.54
  A 0.33 0.33 0.0 0 1 1369.01 335.87
  L 1368.98 355.13
  A 0.33 0.33 0.0 0 0 1369.56 355.34
  L 1386.23 335.64
  A 0.33 0.33 0.0 0 1 1386.48 335.52
  L 1394.45 335.53
  A 0.33 0.33 0.0 0 1 1394.70 336.07
  L 1376.96 357.47
  A 0.33 0.33 0.0 0 0 1376.96 357.89
  L 1395.45 380.50
  A 0.33 0.33 0.0 0 1 1395.19 381.04
  L 1387.11 380.98
  A 0.33 0.33 0.0 0 1 1386.86 380.86
  L 1369.57 359.93
  A 0.33 0.33 0.0 0 0 1368.98 360.14
  Z"
/>
<path fill="#ffffff" d="
  M 1408.55 371.95
  L 1405.49 380.77
  A 0.32 0.32 0.0 0 1 1405.19 380.98
  L 1397.81 381.02
  A 0.32 0.32 0.0 0 1 1397.51 380.59
  L 1413.78 335.74
  A 0.32 0.32 0.0 0 1 1414.08 335.53
  L 1422.55 335.53
  A 0.32 0.32 0.0 0 1 1422.85 335.74
  L 1439.06 380.57
  A 0.32 0.32 0.0 0 1 1438.76 381.00
  L 1431.46 380.99
  A 0.32 0.32 0.0 0 1 1431.16 380.78
  L 1428.06 371.95
  A 0.32 0.32 0.0 0 0 1427.76 371.74
  L 1408.85 371.73
  A 0.32 0.32 0.0 0 0 1408.55 371.95
  Z
  M 1411.26 364.31
  A 0.33 0.33 0.0 0 0 1411.58 364.75
  L 1425.06 364.75
  A 0.33 0.33 0.0 0 0 1425.38 364.31
  L 1418.63 345.06
  A 0.33 0.33 0.0 0 0 1418.01 345.06
  L 1411.26 364.31
  Z"
/>
<path fill="#ffffff" d="
  M 1465.30 363.72
  C 1457.17 367.12 1445.73 366.47 1441.77 357.59
  Q 1440.24 354.17 1440.47 346.97
  Q 1440.66 341.08 1440.47 335.85
  Q 1440.46 335.53 1440.77 335.53
  L 1447.73 335.53
  Q 1447.96 335.53 1447.97 335.77
  Q 1448.09 342.24 1447.94 349.01
  Q 1447.84 353.68 1449.51 355.79
  C 1453.01 360.21 1460.67 358.54 1465.38 356.67
  A 0.97 0.96 -10.7 0 0 1466.00 355.77
  L 1466.00 335.77
  Q 1466.00 335.54 1466.23 335.54
  L 1473.25 335.53
  A 0.22 0.22 0.0 0 1 1473.47 335.75
  L 1473.47 380.76
  Q 1473.47 380.99 1473.24 380.99
  L 1466.25 381.00
  Q 1466.00 381.00 1466.00 380.75
  L 1466.00 364.19
  Q 1466.00 363.43 1465.30 363.72
  Z"
/>
<path fill="#ffffff" d="
  M 1490.00 343.05
  L 1490.00 354.23
  A 0.31 0.31 0.0 0 0 1490.31 354.54
  L 1507.94 354.53
  A 0.31 0.31 0.0 0 1 1508.25 354.84
  L 1508.25 361.15
  A 0.31 0.31 0.0 0 1 1507.94 361.46
  L 1490.31 361.46
  A 0.31 0.31 0.0 0 0 1490.00 361.77
  L 1490.00 373.44
  A 0.31 0.31 0.0 0 0 1490.31 373.75
  L 1509.94 373.75
  A 0.31 0.31 0.0 0 1 1510.25 374.06
  L 1510.25 380.69
  A 0.31 0.31 0.0 0 1 1509.94 381.00
  L 1482.84 381.00
  A 0.31 0.31 0.0 0 1 1482.53 380.69
  L 1482.53 335.84
  A 0.31 0.31 0.0 0 1 1482.84 335.53
  L 1509.44 335.53
  A 0.31 0.31 0.0 0 1 1509.75 335.84
  L 1509.72 342.42
  A 0.31 0.31 0.0 0 1 1509.41 342.73
  L 1490.31 342.74
  A 0.31 0.31 0.0 0 0 1490.00 343.05
  Z"
/>
<path fill="#ffffff" d="
  M 1579.25 343.05
  L 1579.25 380.68
  A 0.32 0.32 0.0 0 1 1578.93 381.00
  L 1572.07 381.00
  A 0.32 0.32 0.0 0 1 1571.75 380.68
  L 1571.75 343.05
  A 0.32 0.32 0.0 0 0 1571.43 342.73
  L 1559.33 342.74
  A 0.32 0.32 0.0 0 1 1559.01 342.42
  L 1559.00 335.86
  A 0.32 0.32 0.0 0 1 1559.32 335.54
  L 1591.93 335.53
  A 0.32 0.32 0.0 0 1 1592.25 335.85
  L 1592.25 342.42
  A 0.32 0.32 0.0 0 1 1591.93 342.74
  L 1579.57 342.73
  A 0.32 0.32 0.0 0 0 1579.25 343.05
  Z"
/>
<path fill="#ffffff" d="
  M 1625.88 357.72
  Q 1632.39 361.92 1631.58 369.52
  C 1630.84 376.57 1624.60 381.06 1617.70 381.02
  Q 1608.54 380.97 1599.08 380.99
  Q 1598.53 380.99 1598.53 380.45
  L 1598.53 336.04
  Q 1598.53 335.46 1599.11 335.48
  Q 1606.76 335.68 1614.45 335.45
  Q 1620.13 335.27 1623.53 337.27
  C 1630.71 341.48 1632.54 351.50 1625.84 356.93
  Q 1625.32 357.35 1625.88 357.72
  Z
  M 1605.99 342.72
  L 1605.99 354.28
  A 0.28 0.28 0.0 0 0 1606.27 354.56
  L 1616.49 354.56
  A 6.04 5.99 0.0 0 0 1622.53 348.57
  L 1622.53 348.43
  A 6.04 5.99 -0.0 0 0 1616.49 342.44
  L 1606.27 342.44
  A 0.28 0.28 0.0 0 0 1605.99 342.72
  Z
  M 1606.00 361.52
  L 1606.00 373.72
  A 0.30 0.30 0.0 0 0 1606.30 374.02
  L 1617.89 374.02
  A 6.39 6.25 0.0 0 0 1624.28 367.77
  L 1624.28 367.47
  A 6.39 6.25 -0.0 0 0 1617.89 361.22
  L 1606.30 361.22
  A 0.30 0.30 0.0 0 0 1606.00 361.52
  Z"
/>
<path fill="#ffffff" d="
  M 1644.55 371.97
  L 1641.50 380.75
  A 0.35 0.35 0.0 0 1 1641.17 380.99
  L 1633.86 381.00
  A 0.35 0.35 0.0 0 1 1633.53 380.53
  L 1649.78 335.76
  A 0.35 0.35 0.0 0 1 1650.11 335.53
  L 1658.52 335.53
  A 0.35 0.35 0.0 0 1 1658.85 335.76
  L 1675.05 380.53
  A 0.35 0.35 0.0 0 1 1674.72 381.00
  L 1667.48 380.99
  A 0.35 0.35 0.0 0 1 1667.15 380.76
  L 1664.07 371.97
  A 0.35 0.35 0.0 0 0 1663.74 371.74
  L 1644.88 371.73
  A 0.35 0.35 0.0 0 0 1644.55 371.97
  Z
  M 1647.26 364.31
  A 0.33 0.33 0.0 0 0 1647.58 364.75
  L 1661.06 364.75
  A 0.33 0.33 0.0 0 0 1661.38 364.31
  L 1654.63 345.06
  A 0.33 0.33 0.0 0 0 1654.01 345.06
  L 1647.26 364.31
  Z"
/>
<rect fill="#d63c37" x="116.01" y="368.00" width="609.98" height="13.00" rx="0.53"/>
</svg>
